HIERARCHY
ROOT Haolin_28_06:Solving:Hips
{
	OFFSET 0.000000 0.000000 0.000000
	CHANNELS 6 Xposition Yposition Zposition Xrotation Yrotation Zrotation
	JOINT Haolin_28_06:Solving:Spine
	{
		OFFSET 0.000000 -12.181966 2.015561
		CHANNELS 6 Xposition Yposition Zposition Xrotation Yrotation Zrotation
		JOINT Haolin_28_06:Solving:Spine1
		{
			OFFSET 0.000000 -8.890296 1.567602
			CHANNELS 6 Xposition Yposition Zposition Xrotation Yrotation Zrotation
			JOINT Haolin_28_06:Solving:Spine2
			{
				OFFSET 0.000000 -8.993092 0.786796
				CHANNELS 6 Xposition Yposition Zposition Xrotation Yrotation Zrotation
				JOINT Haolin_28_06:Solving:Spine3
				{
					OFFSET 0.000000 -9.027443 0.000000
					CHANNELS 6 Xposition Yposition Zposition Xrotation Yrotation Zrotation
					JOINT Haolin_28_06:Solving:Neck
					{
						OFFSET 0.000000 -11.606712 -1.160669
						CHANNELS 6 Xposition Yposition Zposition Xrotation Yrotation Zrotation
						JOINT Haolin_28_06:Solving:Neck1
						{
							OFFSET 0.000000 -7.471592 -0.653680
							CHANNELS 6 Xposition Yposition Zposition Xrotation Yrotation Zrotation
							JOINT Haolin_28_06:Solving:Head
							{
								OFFSET 0.000000 -7.386181 -1.302382
								CHANNELS 6 Xposition Yposition Zposition Xrotation Yrotation Zrotation
								JOINT Haolin_28_06:Solving:HeadEnd
								{
									OFFSET 0.000000 -9.728081 0.000002
									CHANNELS 6 Xposition Yposition Zposition Xrotation Yrotation Zrotation
									End Site
									{
										OFFSET 0.000000 -9.728081 0.000002
									}
								}
							}
						}
					}
					JOINT Haolin_28_06:Solving:RightShoulder
					{
						OFFSET 0.000000 -8.290508 -5.270916
						CHANNELS 6 Xposition Yposition Zposition Xrotation Yrotation Zrotation
						JOINT Haolin_28_06:Solving:RightArm
						{
							OFFSET -19.261074 -0.000008 0.000000
							CHANNELS 6 Xposition Yposition Zposition Xrotation Yrotation Zrotation
							JOINT Haolin_28_06:Solving:RightForeArm
							{
								OFFSET -30.691700 -0.000011 0.000000
								CHANNELS 6 Xposition Yposition Zposition Xrotation Yrotation Zrotation
								JOINT Haolin_28_06:Solving:RightHand
								{
									OFFSET -20.216934 -0.000008 0.000000
									CHANNELS 6 Xposition Yposition Zposition Xrotation Yrotation Zrotation
									JOINT Haolin_28_06:Solving:RightHandThumb1
									{
										OFFSET -4.948814 2.881329 -3.679893
										CHANNELS 6 Xposition Yposition Zposition Xrotation Yrotation Zrotation
										End Site
										{
											OFFSET -7.039886 -0.000004 -7.104978
										}
									}
									JOINT Haolin_28_06:Solving:RightHandMiddle1
									{
										OFFSET -13.196846 -0.000004 0.084595
										CHANNELS 6 Xposition Yposition Zposition Xrotation Yrotation Zrotation
										End Site
										{
											OFFSET -10.002037 -0.000004 0.000000
										}
									}
								}
							}
						}
					}
					JOINT Haolin_28_06:Solving:LeftShoulder
					{
						OFFSET 0.000000 -8.290508 -5.270916
						CHANNELS 6 Xposition Yposition Zposition Xrotation Yrotation Zrotation
						JOINT Haolin_28_06:Solving:LeftArm
						{
							OFFSET 19.261074 -0.000008 0.000000
							CHANNELS 6 Xposition Yposition Zposition Xrotation Yrotation Zrotation
							JOINT Haolin_28_06:Solving:LeftForeArm
							{
								OFFSET 30.691700 -0.000011 0.000000
								CHANNELS 6 Xposition Yposition Zposition Xrotation Yrotation Zrotation
								JOINT Haolin_28_06:Solving:LeftHand
								{
									OFFSET 20.216934 -0.000008 0.000000
									CHANNELS 6 Xposition Yposition Zposition Xrotation Yrotation Zrotation
									JOINT Haolin_28_06:Solving:LeftHandThumb1
									{
										OFFSET 4.948814 2.881329 -3.679893
										CHANNELS 6 Xposition Yposition Zposition Xrotation Yrotation Zrotation
										End Site
										{
											OFFSET 7.039886 -0.000004 -7.104978
										}
									}
									JOINT Haolin_28_06:Solving:LeftHandMiddle1
									{
										OFFSET 13.196846 -0.000004 0.084595
										CHANNELS 6 Xposition Yposition Zposition Xrotation Yrotation Zrotation
										End Site
										{
											OFFSET 10.002037 -0.000004 0.000000
										}
									}
								}
							}
						}
					}
				}
			}
		}
	}
	JOINT Haolin_28_06:Solving:RightUpLeg
	{
		OFFSET -10.083070 0.000000 0.000000
		CHANNELS 6 Xposition Yposition Zposition Xrotation Yrotation Zrotation
		JOINT Haolin_28_06:Solving:RightLeg
		{
			OFFSET 0.000000 47.042522 -0.000008
			CHANNELS 6 Xposition Yposition Zposition Xrotation Yrotation Zrotation
			JOINT Haolin_28_06:Solving:RightFoot
			{
				OFFSET 0.000000 38.766415 -0.000006
				CHANNELS 6 Xposition Yposition Zposition Xrotation Yrotation Zrotation
				JOINT Haolin_28_06:Solving:RightForeFoot
				{
					OFFSET 0.000000 3.531212 -0.000000
					CHANNELS 6 Xposition Yposition Zposition Xrotation Yrotation Zrotation
					JOINT Haolin_28_06:Solving:RightToeBase
					{
						OFFSET 0.000000 0.000000 -13.829352
						CHANNELS 6 Xposition Yposition Zposition Xrotation Yrotation Zrotation
						JOINT Haolin_28_06:Solving:RightToeBaseEnd
						{
							OFFSET 0.000000 0.000000 -4.034167
							CHANNELS 6 Xposition Yposition Zposition Xrotation Yrotation Zrotation
							End Site
							{
								OFFSET 0.000000 -4.034164 0.000004
							}
						}
					}
				}
			}
		}
	}
	JOINT Haolin_28_06:Solving:LeftUpLeg
	{
		OFFSET 10.083070 0.000000 0.000000
		CHANNELS 6 Xposition Yposition Zposition Xrotation Yrotation Zrotation
		JOINT Haolin_28_06:Solving:LeftLeg
		{
			OFFSET 0.000000 47.042522 -0.000008
			CHANNELS 6 Xposition Yposition Zposition Xrotation Yrotation Zrotation
			JOINT Haolin_28_06:Solving:LeftFoot
			{
				OFFSET 0.000000 38.766415 -0.000006
				CHANNELS 6 Xposition Yposition Zposition Xrotation Yrotation Zrotation
				JOINT Haolin_28_06:Solving:LeftForeFoot
				{
					OFFSET 0.000000 3.531212 -0.000000
					CHANNELS 6 Xposition Yposition Zposition Xrotation Yrotation Zrotation
					JOINT Haolin_28_06:Solving:LeftToeBase
					{
						OFFSET 0.000000 0.000000 -13.829352
						CHANNELS 6 Xposition Yposition Zposition Xrotation Yrotation Zrotation
						JOINT Haolin_28_06:Solving:LeftToeBaseEnd
						{
							OFFSET 0.000000 0.000000 -4.855067
							CHANNELS 6 Xposition Yposition Zposition Xrotation Yrotation Zrotation
							End Site
							{
								OFFSET 0.000000 -4.855064 0.000004
							}
						}
					}
				}
			}
		}
	}
}
MOTION
Frames: 6
Frame Time: 0.041667
15.526761 -121.843643 -94.409317 79.666801 2.685932 -1.234457 0.000003 -12.181997 2.015553 16.182653 -1.076347 -4.196033 0.000003 -8.890314 1.567613 0.152267 0.158348 -1.116443 -0.000001 -8.993088 0.786795 0.132761 -0.965509 -0.206585 -0.000005 -9.027432 0.000035 2.867927 -1.092039 2.110338 -0.000003 -11.606727 -1.160661 -6.055751 0.154425 -1.223194 -0.000006 -7.471568 -0.653677 0.638100 -4.714781 -1.494788 -0.000006 -7.386188 -1.302386 7.962312 -0.204990 -1.588263 0.000002 -9.728088 0.000039 -0.000000 0.000000 0.000002 -0.000002 -8.290516 -5.270934 -0.000008 16.447008 8.535217 -19.261078 -0.000019 0.000018 -31.315328 -68.197219 -95.397293 -30.691675 -0.000023 -0.000007 -16.639128 -20.386586 -5.943503 -20.216890 -0.000009 0.000005 2.689819 -15.176448 10.173858 -4.948802 2.881333 -3.679883 -0.000004 -0.000003 0.000005 -13.196850 -0.000013 0.084588 -0.000004 -0.000003 0.000004 -0.000004 -8.290501 -5.270936 -0.000004 -7.793097 -7.858834 19.261063 0.000013 -0.000011 -24.988109 39.446702 94.345225 30.691696 -0.000026 -0.000007 0.036225 15.411273 -0.009621 20.216923 -0.000015 0.000005 1.468559 6.227438 -13.297226 4.948819 2.881327 -3.679878 -0.000003 0.000005 -0.000003 13.196871 -0.000008 0.084598 -0.000006 0.000005 -0.000007 -10.083065 -0.000018 -0.000017 15.640244 11.266015 -1.154602 0.000006 47.042511 -0.000028 -1.491797 -0.000000 -0.000000 -0.000000 38.766418 -0.000026 2.992500 7.940606 5.041384 0.000004 3.531212 0.000005 -0.000000 0.000002 -0.000001 0.000007 0.000005 -13.829334 1.740711 -0.000001 -0.000000 -0.000004 0.000000 -4.034173 0.000001 -0.000001 0.000001 10.083072 -0.000031 0.000005 -4.363182 -12.927873 -7.204787 0.000008 47.042522 0.000005 30.797685 -0.000001 -0.000001 0.000003 38.766426 0.000010 0.030390 0.737160 4.961472 0.000009 3.531219 0.000026 -0.000001 0.000002 0.000000 0.000005 0.000021 -13.829356 -2.663706 0.000002 0.000000 -0.000006 0.000008 -4.855080 -0.000000 -0.000001 0.000001 
15.588201 -121.808784 -94.422195 79.746693 2.790337 -1.287349 0.000003 -12.181962 2.015558 16.182537 -1.074631 -4.160649 -0.000002 -8.890315 1.567606 0.155514 0.153252 -1.104422 0.000002 -8.993101 0.786806 0.119904 -1.042207 -0.185589 0.000005 -9.027461 0.000003 2.833560 -1.115883 2.128239 0.000001 -11.606697 -1.160695 -6.134038 0.196630 -1.210389 -0.000002 -7.471581 -0.653649 0.622915 -4.571419 -1.474622 -0.000006 -7.386150 -1.302404 7.975009 -0.195684 -1.582531 -0.000003 -9.728096 0.000004 0.000002 -0.000000 -0.000000 -0.000001 -8.290508 -5.270947 -0.000007 16.283164 8.537783 -19.261076 -0.000039 0.000023 -32.463633 -68.306441 -96.311726 -30.691687 -0.000003 0.000002 -16.919330 -20.528065 -6.088699 -20.216930 -0.000006 0.000023 2.694993 -15.159950 10.203639 -4.948795 2.881349 -3.679867 0.000001 -0.000000 0.000005 -13.196850 0.000004 0.084591 -0.000001 -0.000002 0.000005 -0.000001 -8.290508 -5.270947 -0.000007 -7.698268 -7.885955 19.261078 0.000013 -0.000034 -25.296570 40.124756 94.510735 30.691679 -0.000011 0.000005 0.189727 15.668913 -0.051239 20.216940 -0.000014 0.000011 1.468518 6.168851 -13.418055 4.948828 2.881303 -3.679869 -0.000003 0.000002 -0.000003 13.196880 -0.000003 0.084594 -0.000002 0.000012 -0.000004 -10.083066 -0.000001 -0.000001 15.599059 11.235477 -1.047286 0.000006 47.042522 0.000002 -1.594496 0.000002 -0.000000 0.000002 38.766407 -0.000027 3.048277 7.900746 5.027588 -0.000003 3.531219 0.000022 -0.000000 -0.000001 0.000000 0.000008 -0.000007 -13.829357 1.752328 -0.000005 -0.000000 -0.000002 0.000015 -4.034155 0.000001 -0.000001 0.000001 10.083070 0.000003 -0.000012 -4.402597 -12.816105 -7.156132 0.000005 47.042522 -0.000010 29.941251 -0.000001 -0.000002 -0.000003 38.766415 -0.000020 -0.048902 0.720472 4.871034 -0.000000 3.531219 0.000014 -0.000004 -0.000001 0.000000 -0.000005 0.000003 -13.829347 -2.703493 0.000001 0.000000 0.000000 0.000015 -4.855063 -0.000002 -0.000000 -0.000000 
15.653793 -121.771805 -94.435074 79.853224 2.880799 -1.329179 0.000001 -12.181965 2.015538 16.155496 -1.081833 -4.131646 -0.000005 -8.890311 1.567603 0.143653 0.149547 -1.093191 0.000001 -8.993077 0.786783 0.118727 -1.091560 -0.178086 -0.000000 -9.027424 -0.000001 2.809593 -1.130856 2.161995 0.000000 -11.606709 -1.160676 -6.225355 0.224622 -1.200198 0.000002 -7.471622 -0.653676 0.605768 -4.433945 -1.458819 0.000002 -7.386189 -1.302396 7.978203 -0.186778 -1.583213 0.000002 -9.728096 0.000013 0.000002 0.000000 -0.000000 -0.000002 -8.290501 -5.270927 -0.000011 16.116048 8.542877 -19.261080 -0.000023 0.000004 -33.604923 -68.339950 -97.211849 -30.691696 -0.000013 -0.000004 -17.101474 -20.655976 -6.194169 -20.216915 -0.000036 -0.000014 2.714007 -15.217610 10.237001 -4.948783 2.881345 -3.679893 0.000001 -0.000000 0.000001 -13.196832 0.000009 0.084589 -0.000004 -0.000001 0.000009 -0.000002 -8.290501 -5.270927 -0.000007 -7.606765 -7.941367 19.261066 -0.000012 0.000004 -25.568163 40.561813 94.662201 30.691692 -0.000010 -0.000009 0.435113 15.926994 -0.119400 20.216930 -0.000014 0.000002 1.465667 6.137666 -13.458181 4.948824 2.881323 -3.679880 -0.000005 0.000002 -0.000006 13.196856 -0.000018 0.084564 -0.000007 0.000004 -0.000005 -10.083069 0.000002 -0.000037 15.536437 11.222809 -0.954681 0.000001 47.042534 0.000001 -1.701180 0.000004 -0.000000 -0.000002 38.766426 -0.000021 3.119474 7.854531 5.021002 -0.000001 3.531212 -0.000001 -0.000000 -0.000003 -0.000000 0.000001 -0.000010 -13.829384 1.752509 -0.000001 0.000000 -0.000003 0.000001 -4.034174 0.000002 -0.000001 0.000000 10.083071 0.000012 -0.000015 -4.438408 -12.696927 -7.097475 -0.000006 47.042522 0.000001 28.958557 -0.000001 -0.000003 -0.000010 38.766426 0.000006 -0.117190 0.550696 4.707355 -0.000005 3.531212 -0.000010 0.000001 -0.000000 0.000000 -0.000005 -0.000004 -13.829344 -2.711878 -0.000002 0.000000 0.000003 -0.000008 -4.855058 -0.000000 -0.000001 0.000000 
15.736022 -121.720146 -94.448120 79.959877 2.939768 -1.391120 0.000002 -12.181944 2.015572 16.111984 -1.104299 -4.089701 0.000000 -8.890280 1.567614 0.130802 0.149400 -1.093296 0.000000 -8.993093 0.786809 0.123459 -1.089122 -0.166811 0.000001 -9.027452 0.000003 2.789992 -1.133620 2.186654 0.000003 -11.606743 -1.160679 -6.342952 0.268634 -1.175301 0.000005 -7.471600 -0.653703 0.598922 -4.305412 -1.436759 0.000006 -7.386173 -1.302390 7.989469 -0.179718 -1.565393 -0.000006 -9.728050 -0.000028 0.000000 -0.000001 -0.000002 0.000002 -8.290489 -5.270934 -0.000010 15.953240 8.579742 -19.261078 -0.000005 0.000018 -34.763252 -68.320764 -98.122504 -30.691654 -0.000015 0.000008 -17.151389 -20.796775 -6.253387 -20.216921 -0.000005 0.000017 2.712312 -15.289348 10.184823 -4.948819 2.881328 -3.679867 0.000004 -0.000005 0.000003 -13.196869 -0.000015 0.084598 0.000009 -0.000014 0.000009 -0.000001 -8.290485 -5.270934 -0.000005 -7.525004 -7.999348 19.261076 0.000016 0.000003 -25.797232 40.767586 94.804200 30.691696 -0.000004 -0.000019 0.627964 16.178423 -0.174972 20.216944 -0.000016 0.000014 1.468249 6.155000 -13.444666 4.948795 2.881315 -3.679883 -0.000001 0.000000 -0.000005 13.196831 -0.000018 0.084596 0.000002 0.000007 -0.000000 -10.083068 0.000021 0.000019 15.490003 11.232744 -0.838745 0.000003 47.042534 0.000004 -1.813179 -0.000001 -0.000000 -0.000006 38.766422 -0.000002 3.155868 7.840220 4.971941 -0.000000 3.531219 0.000011 0.000000 0.000001 -0.000001 0.000007 0.000008 -13.829343 1.739425 0.000003 -0.000001 -0.000014 0.000000 -4.034171 0.000001 0.000002 0.000001 10.083069 0.000017 0.000003 -4.430529 -12.490404 -6.985568 0.000007 47.042515 0.000003 27.884404 0.000001 -0.000001 0.000004 38.766411 -0.000015 -0.157492 0.249790 4.578097 0.000001 3.531212 -0.000002 -0.000000 0.000001 -0.000000 0.000022 -0.000001 -13.829384 -2.690694 0.000002 0.000000 0.000005 0.000015 -4.855058 -0.000001 -0.000000 -0.000000 
15.813533 -121.675034 -94.457321 80.083408 3.040757 -1.441208 0.000000 -12.181964 2.015563 16.081667 -1.104540 -4.059354 0.000002 -8.890315 1.567583 0.112816 0.142177 -1.070088 -0.000000 -8.993093 0.786783 0.120211 -1.135737 -0.154299 0.000000 -9.027435 -0.000006 2.765795 -1.152585 2.212210 0.000003 -11.606686 -1.160675 -6.467373 0.313605 -1.155951 -0.000004 -7.471579 -0.653667 0.588045 -4.172490 -1.414271 0.000010 -7.386239 -1.302362 7.991422 -0.171635 -1.547215 -0.000005 -9.728088 0.000005 0.000001 0.000000 0.000001 0.000002 -8.290485 -5.270930 -0.000006 15.796481 8.615235 -19.261078 -0.000034 0.000017 -35.893734 -68.276231 -99.012089 -30.691698 -0.000012 -0.000002 -17.361386 -21.014752 -6.397035 -20.216890 -0.000008 -0.000003 2.715783 -15.236885 10.231208 -4.948783 2.881337 -3.679859 0.000003 0.000007 0.000002 -13.196840 0.000004 0.084623 0.000001 0.000003 -0.000002 0.000004 -8.290504 -5.270928 -0.000001 -7.430994 -8.079847 19.261076 -0.000018 -0.000004 -25.992423 40.810910 94.935285 30.691681 -0.000008 -0.000011 0.686035 16.453550 -0.194318 20.216917 -0.000022 0.000021 1.462611 6.140443 -13.425254 4.948825 2.881344 -3.679898 -0.000001 0.000003 -0.000006 13.196848 0.000009 0.084569 0.000002 0.000003 0.000003 -10.083071 -0.000004 0.000010 15.415435 11.199624 -0.727234 0.000001 47.042526 -0.000012 -1.927353 0.000001 -0.000000 -0.000003 38.766407 -0.000028 3.200919 7.801856 4.916031 0.000003 3.531212 -0.000017 -0.000000 0.000002 -0.000000 -0.000001 0.000011 -13.829366 1.724165 0.000003 -0.000000 -0.000002 0.000008 -4.034182 -0.000001 0.000002 0.000000 10.083069 -0.000008 0.000001 -4.411499 -12.232128 -6.886613 0.000003 47.042538 0.000005 26.725605 0.000001 -0.000002 -0.000002 38.766418 -0.000020 -0.154272 -0.094377 4.471636 0.000012 3.531197 0.000016 0.000002 -0.000001 0.000000 0.000006 0.000005 -13.829357 -2.647539 -0.000000 -0.000000 0.000005 0.000007 -4.855046 -0.000002 0.000001 -0.000000 
15.895565 -121.624374 -94.467972 80.200593 3.142638 -1.498915 0.000001 -12.181981 2.015562 16.058051 -1.102996 -4.005341 -0.000002 -8.890272 1.567624 0.104930 0.138506 -1.059793 0.000004 -8.993085 0.786792 0.113875 -1.191951 -0.135914 -0.000002 -9.027411 -0.000010 2.734734 -1.170608 2.229359 -0.000003 -11.606720 -1.160707 -6.590185 0.360416 -1.141530 -0.000003 -7.471572 -0.653715 0.572287 -4.038682 -1.386242 0.000006 -7.386213 -1.302377 7.980363 -0.164139 -1.521413 -0.000004 -9.728043 -0.000032 -0.000000 -0.000000 -0.000001 -0.000001 -8.290535 -5.270954 0.000000 15.664530 8.659916 -19.261074 -0.000021 0.000021 -37.009926 -68.218550 -99.879789 -30.691662 -0.000015 -0.000002 -17.530119 -21.242312 -6.528876 -20.216930 -0.000022 0.000015 2.722565 -15.204518 10.277087 -4.948827 2.881318 -3.679879 -0.000001 0.000002 0.000003 -13.196853 -0.000018 0.084585 0.000005 0.000004 0.000001 0.000001 -8.290535 -5.270954 0.000001 -7.335065 -8.168292 19.261078 0.000001 -0.000007 -26.152055 40.709324 95.055039 30.691702 -0.000018 0.000004 0.357512 16.755984 -0.103067 20.216949 -0.000019 -0.000011 1.477995 6.161505 -13.516995 4.948822 2.881331 -3.679901 0.000001 0.000000 0.000000 13.196862 -0.000000 0.084581 0.000003 -0.000009 0.000001 -10.083068 -0.000018 0.000006 15.364977 11.259547 -0.611065 -0.000005 47.042522 0.000002 -2.077098 -0.000001 -0.000000 0.000001 38.766426 -0.000009 3.276204 7.678091 4.901581 0.000009 3.531212 -0.000005 -0.000001 -0.000000 -0.000001 0.000004 0.000004 -13.829353 1.734476 0.000000 0.000000 -0.000000 0.000000 -4.034181 -0.000000 0.000002 0.000001 10.083069 -0.000008 -0.000007 -4.380770 -12.039954 -6.766277 0.000009 47.042538 0.000030 25.528442 -0.000002 -0.000003 -0.000002 38.766411 -0.000017 -0.119481 -0.503634 4.279407 -0.000009 3.531204 0.000004 0.000002 -0.000002 0.000000 0.000001 0.000003 -13.829364 -2.577749 -0.000002 -0.000000 -0.000003 0.000007 -4.855083 -0.000001 0.000000 -0.000000 
